<svg xmlns="http://www.w3.org/2000/svg" width="1200" height="630" viewBox="0 0 1200 630" shape-rendering="crispEdges">
<rect width="1200" height="630" fill="#0d1117"/>
<path fill="#8b949e" d="M66 52h10v2h-10zM64 54h4v2h-4zM74 54h4v2h-4zM64 56h4v2h-4zM74 56h4v2h-4zM64 58h4v2h-4zM74 58h4v2h-4zM64 60h14v2h-14zM64 62h4v2h-4zM74 62h4v2h-4zM64 64h4v2h-4zM74 64h4v2h-4zM64 66h4v2h-4zM74 66h4v2h-4zM64 68h4v2h-4zM74 68h4v2h-4zM64 70h4v2h-4zM74 70h4v2h-4zM82 52h12v2h-12zM80 54h4v2h-4zM80 56h4v2h-4zM80 58h4v2h-4zM80 60h4v2h-4zM80 62h4v2h-4zM80 64h4v2h-4zM80 66h4v2h-4zM80 68h4v2h-4zM82 70h12v2h-12zM96 52h16v2h-16zM102 54h4v2h-4zM102 56h4v2h-4zM102 58h4v2h-4zM102 60h4v2h-4zM102 62h4v2h-4zM102 64h4v2h-4zM102 66h4v2h-4zM102 68h4v2h-4zM102 70h4v2h-4zM112 52h4v2h-4zM122 52h4v2h-4zM112 54h4v2h-4zM122 54h4v2h-4zM112 56h4v2h-4zM122 56h4v2h-4zM112 58h4v2h-4zM122 58h4v2h-4zM112 60h4v2h-4zM122 60h4v2h-4zM112 62h4v2h-4zM122 62h4v2h-4zM112 64h4v2h-4zM122 64h4v2h-4zM112 66h4v2h-4zM122 66h4v2h-4zM112 68h4v2h-4zM122 68h4v2h-4zM114 70h12v2h-12zM130 52h10v2h-10zM128 54h4v2h-4zM138 54h4v2h-4zM128 56h4v2h-4zM138 56h4v2h-4zM128 58h4v2h-4zM138 58h4v2h-4zM128 60h14v2h-14zM128 62h4v2h-4zM138 62h4v2h-4zM128 64h4v2h-4zM138 64h4v2h-4zM128 66h4v2h-4zM138 66h4v2h-4zM128 68h4v2h-4zM138 68h4v2h-4zM128 70h4v2h-4zM138 70h4v2h-4zM144 52h4v2h-4zM144 54h4v2h-4zM144 56h4v2h-4zM144 58h4v2h-4zM144 60h4v2h-4zM144 62h4v2h-4zM144 64h4v2h-4zM144 66h4v2h-4zM144 68h4v2h-4zM146 70h12v2h-12zM162 52h12v2h-12zM166 54h4v2h-4zM166 56h4v2h-4zM166 58h4v2h-4zM166 60h4v2h-4zM166 62h4v2h-4zM166 64h4v2h-4zM166 66h4v2h-4zM166 68h4v2h-4zM162 70h12v2h-12zM178 52h12v2h-12zM176 54h4v2h-4zM176 56h4v2h-4zM176 58h4v2h-4zM178 60h10v2h-10zM186 62h4v2h-4zM186 64h4v2h-4zM186 66h4v2h-4zM186 68h4v2h-4zM176 70h12v2h-12zM214 62h4v2h-4zM214 64h4v2h-4zM240 52h4v2h-4zM240 54h4v2h-4zM240 56h4v2h-4zM240 58h4v2h-4zM240 60h4v2h-4zM240 62h4v2h-4zM240 64h4v2h-4zM240 66h4v2h-4zM240 68h4v2h-4zM242 70h12v2h-12zM258 52h10v2h-10zM256 54h4v2h-4zM266 54h4v2h-4zM256 56h4v2h-4zM266 56h4v2h-4zM256 58h4v2h-4zM266 58h4v2h-4zM256 60h14v2h-14zM256 62h4v2h-4zM266 62h4v2h-4zM256 64h4v2h-4zM266 64h4v2h-4zM256 66h4v2h-4zM266 66h4v2h-4zM256 68h4v2h-4zM266 68h4v2h-4zM256 70h4v2h-4zM266 70h4v2h-4zM274 52h12v2h-12zM272 54h4v2h-4zM272 56h4v2h-4zM272 58h4v2h-4zM274 60h10v2h-10zM282 62h4v2h-4zM282 64h4v2h-4zM282 66h4v2h-4zM282 68h4v2h-4zM272 70h12v2h-12zM288 52h16v2h-16zM294 54h4v2h-4zM294 56h4v2h-4zM294 58h4v2h-4zM294 60h4v2h-4zM294 62h4v2h-4zM294 64h4v2h-4zM294 66h4v2h-4zM294 68h4v2h-4zM294 70h4v2h-4zM322 52h10v2h-10zM320 54h4v2h-4zM330 54h4v2h-4zM330 56h4v2h-4zM330 58h4v2h-4zM324 60h8v2h-8zM330 62h4v2h-4zM330 64h4v2h-4zM330 66h4v2h-4zM320 68h4v2h-4zM330 68h4v2h-4zM322 70h10v2h-10zM342 52h4v2h-4zM340 54h6v2h-6zM338 56h8v2h-8zM338 58h2v2h-2zM342 58h4v2h-4zM342 60h4v2h-4zM342 62h4v2h-4zM342 64h4v2h-4zM342 66h4v2h-4zM342 68h4v2h-4zM338 70h12v2h-12zM368 52h12v2h-12zM368 54h4v2h-4zM378 54h4v2h-4zM368 56h4v2h-4zM378 56h4v2h-4zM368 58h4v2h-4zM378 58h4v2h-4zM368 60h4v2h-4zM378 60h4v2h-4zM368 62h4v2h-4zM378 62h4v2h-4zM368 64h4v2h-4zM378 64h4v2h-4zM368 66h4v2h-4zM378 66h4v2h-4zM368 68h4v2h-4zM378 68h4v2h-4zM368 70h12v2h-12zM386 52h10v2h-10zM384 54h4v2h-4zM394 54h4v2h-4zM384 56h4v2h-4zM394 56h4v2h-4zM384 58h4v2h-4zM394 58h4v2h-4zM384 60h14v2h-14zM384 62h4v2h-4zM394 62h4v2h-4zM384 64h4v2h-4zM394 64h4v2h-4zM384 66h4v2h-4zM394 66h4v2h-4zM384 68h4v2h-4zM394 68h4v2h-4zM384 70h4v2h-4zM394 70h4v2h-4zM400 52h4v2h-4zM410 52h4v2h-4zM400 54h4v2h-4zM410 54h4v2h-4zM400 56h4v2h-4zM410 56h4v2h-4zM400 58h4v2h-4zM410 58h4v2h-4zM402 60h12v2h-12zM410 62h4v2h-4zM410 64h4v2h-4zM410 66h4v2h-4zM410 68h4v2h-4zM400 70h12v2h-12zM418 52h12v2h-12zM416 54h4v2h-4zM416 56h4v2h-4zM416 58h4v2h-4zM418 60h10v2h-10zM426 62h4v2h-4zM426 64h4v2h-4zM426 66h4v2h-4zM426 68h4v2h-4zM416 70h12v2h-12z"/>
<path fill="#f0883e" d="M94 122h10v10h-10zM74 132h60v10h-60zM64 142h20v10h-20zM94 142h10v10h-10zM64 152h20v10h-20zM94 152h10v10h-10zM64 162h20v10h-20zM94 162h10v10h-10zM74 172h50v10h-50zM94 182h10v10h-10zM114 182h20v10h-20zM94 192h10v10h-10zM114 192h20v10h-20zM94 202h10v10h-10zM114 202h20v10h-20zM94 212h10v10h-10zM114 212h20v10h-20zM64 222h60v10h-60zM94 232h10v10h-10zM174 132h20v10h-20zM164 142h30v10h-30zM154 152h40v10h-40zM154 162h10v10h-10zM174 162h20v10h-20zM174 172h20v10h-20zM174 182h20v10h-20zM174 192h20v10h-20zM174 202h20v10h-20zM174 212h20v10h-20zM154 222h60v10h-60zM254 132h20v10h-20zM244 142h30v10h-30zM234 152h40v10h-40zM234 162h10v10h-10zM254 162h20v10h-20zM254 172h20v10h-20zM254 182h20v10h-20zM254 192h20v10h-20zM254 202h20v10h-20zM254 212h20v10h-20zM234 222h60v10h-60zM314 132h50v10h-50zM304 142h20v10h-20zM354 142h20v10h-20zM304 152h20v10h-20zM354 152h20v10h-20zM304 162h20v10h-20zM354 162h20v10h-20zM314 172h50v10h-50zM304 182h20v10h-20zM354 182h20v10h-20zM304 192h20v10h-20zM354 192h20v10h-20zM304 202h20v10h-20zM354 202h20v10h-20zM304 212h20v10h-20zM354 212h20v10h-20zM314 222h50v10h-50z"/>
<path fill="#e6edf3" d="M67 311h15v3h-15zM79 314h6v3h-6zM67 317h18v3h-18zM64 320h6v3h-6zM79 320h6v3h-6zM64 323h6v3h-6zM79 323h6v3h-6zM64 326h6v3h-6zM79 326h6v3h-6zM67 329h18v3h-18zM94 302h6v3h-6zM94 305h6v3h-6zM94 308h6v3h-6zM91 311h15v3h-15zM94 314h6v3h-6zM94 317h6v3h-6zM94 320h6v3h-6zM94 323h6v3h-6zM94 326h6v3h-6zM97 329h12v3h-12zM139 302h15v3h-15zM136 305h6v3h-6zM151 305h6v3h-6zM136 308h6v3h-6zM151 308h6v3h-6zM136 311h6v3h-6zM151 311h6v3h-6zM136 314h21v3h-21zM136 317h6v3h-6zM151 317h6v3h-6zM136 320h6v3h-6zM151 320h6v3h-6zM136 323h6v3h-6zM151 323h6v3h-6zM136 326h6v3h-6zM151 326h6v3h-6zM136 329h6v3h-6zM151 329h6v3h-6zM160 302h18v3h-18zM160 305h6v3h-6zM175 305h6v3h-6zM160 308h6v3h-6zM175 308h6v3h-6zM160 311h6v3h-6zM175 311h6v3h-6zM160 314h18v3h-18zM160 317h6v3h-6zM160 320h6v3h-6zM160 323h6v3h-6zM160 326h6v3h-6zM160 329h6v3h-6zM187 302h18v3h-18zM193 305h6v3h-6zM193 308h6v3h-6zM193 311h6v3h-6zM193 314h6v3h-6zM193 317h6v3h-6zM193 320h6v3h-6zM193 323h6v3h-6zM193 326h6v3h-6zM187 329h18v3h-18zM238 302h6v3h-6zM238 305h6v3h-6zM238 308h6v3h-6zM238 311h6v3h-6zM238 314h6v3h-6zM238 317h6v3h-6zM238 320h6v3h-6zM238 323h6v3h-6zM238 326h6v3h-6zM241 329h9v3h-9zM265 302h6v3h-6zM265 305h6v3h-6zM262 311h9v3h-9zM265 314h6v3h-6zM265 317h6v3h-6zM265 320h6v3h-6zM265 323h6v3h-6zM265 326h6v3h-6zM265 329h9v3h-9zM283 311h18v3h-18zM280 314h6v3h-6zM280 317h6v3h-6zM283 320h15v3h-15zM295 323h6v3h-6zM295 326h6v3h-6zM280 329h18v3h-18zM310 302h6v3h-6zM310 305h6v3h-6zM310 308h6v3h-6zM307 311h15v3h-15zM310 314h6v3h-6zM310 317h6v3h-6zM310 320h6v3h-6zM310 323h6v3h-6zM310 326h6v3h-6zM313 329h12v3h-12zM352 311h18v3h-18zM352 314h6v3h-6zM367 314h6v3h-6zM352 317h6v3h-6zM367 317h6v3h-6zM352 320h6v3h-6zM367 320h6v3h-6zM352 323h6v3h-6zM367 323h6v3h-6zM352 326h6v3h-6zM367 326h6v3h-6zM352 329h18v3h-18zM352 332h6v3h-6zM352 335h6v3h-6zM352 338h6v3h-6zM379 311h18v3h-18zM376 314h6v3h-6zM391 314h6v3h-6zM376 317h6v3h-6zM376 320h6v3h-6zM376 323h6v3h-6zM376 326h6v3h-6zM376 329h6v3h-6zM409 302h6v3h-6zM409 305h6v3h-6zM406 311h9v3h-9zM409 314h6v3h-6zM409 317h6v3h-6zM409 320h6v3h-6zM409 323h6v3h-6zM409 326h6v3h-6zM409 329h9v3h-9zM427 311h18v3h-18zM424 314h6v3h-6zM424 317h6v3h-6zM424 320h6v3h-6zM424 323h6v3h-6zM424 326h6v3h-6zM427 329h18v3h-18zM451 311h18v3h-18zM448 314h6v3h-6zM463 314h6v3h-6zM448 317h6v3h-6zM463 317h6v3h-6zM448 320h21v3h-21zM448 323h6v3h-6zM448 326h6v3h-6zM451 329h18v3h-18zM481 326h6v3h-6zM481 329h6v3h-6zM478 332h6v3h-6zM526 302h6v3h-6zM526 305h6v3h-6zM526 308h6v3h-6zM526 311h6v3h-6zM526 314h6v3h-6zM526 317h6v3h-6zM526 320h6v3h-6zM526 323h6v3h-6zM526 326h6v3h-6zM529 329h9v3h-9zM547 311h15v3h-15zM559 314h6v3h-6zM547 317h18v3h-18zM544 320h6v3h-6zM559 320h6v3h-6zM544 323h6v3h-6zM559 323h6v3h-6zM544 326h6v3h-6zM559 326h6v3h-6zM547 329h18v3h-18zM571 311h18v3h-18zM568 314h6v3h-6zM568 317h6v3h-6zM571 320h15v3h-15zM583 323h6v3h-6zM583 326h6v3h-6zM568 329h18v3h-18zM598 302h6v3h-6zM598 305h6v3h-6zM598 308h6v3h-6zM595 311h15v3h-15zM598 314h6v3h-6zM598 317h6v3h-6zM598 320h6v3h-6zM598 323h6v3h-6zM598 326h6v3h-6zM601 329h12v3h-12zM643 302h15v3h-15zM640 305h6v3h-6zM655 305h6v3h-6zM655 308h6v3h-6zM655 311h6v3h-6zM646 314h12v3h-12zM655 317h6v3h-6zM655 320h6v3h-6zM655 323h6v3h-6zM640 326h6v3h-6zM655 326h6v3h-6zM643 329h15v3h-15zM673 302h6v3h-6zM670 305h9v3h-9zM667 308h12v3h-12zM667 311h3v3h-3zM673 311h6v3h-6zM673 314h6v3h-6zM673 317h6v3h-6zM673 320h6v3h-6zM673 323h6v3h-6zM673 326h6v3h-6zM667 329h18v3h-18zM727 302h6v3h-6zM727 305h6v3h-6zM727 308h6v3h-6zM715 311h18v3h-18zM712 314h6v3h-6zM727 314h6v3h-6zM712 317h6v3h-6zM727 317h6v3h-6zM712 320h6v3h-6zM727 320h6v3h-6zM712 323h6v3h-6zM727 323h6v3h-6zM712 326h6v3h-6zM727 326h6v3h-6zM715 329h18v3h-18zM739 311h15v3h-15zM751 314h6v3h-6zM739 317h18v3h-18zM736 320h6v3h-6zM751 320h6v3h-6zM736 323h6v3h-6zM751 323h6v3h-6zM736 326h6v3h-6zM751 326h6v3h-6zM739 329h18v3h-18zM760 311h6v3h-6zM775 311h6v3h-6zM760 314h6v3h-6zM775 314h6v3h-6zM760 317h6v3h-6zM775 317h6v3h-6zM760 320h6v3h-6zM775 320h6v3h-6zM760 323h6v3h-6zM775 323h6v3h-6zM760 326h6v3h-6zM775 326h6v3h-6zM763 329h18v3h-18zM775 332h6v3h-6zM775 335h6v3h-6zM760 338h18v3h-18zM787 311h18v3h-18zM784 314h6v3h-6zM784 317h6v3h-6zM787 320h15v3h-15zM799 323h6v3h-6zM799 326h6v3h-6zM784 329h18v3h-18z"/>
<path fill="#30363d" d="M856 112h2v400h-2z"/>
<path fill="#e6edf3" d="M900 116h4v4h-4zM892 120h24v4h-24zM888 124h8v4h-8zM900 124h4v4h-4zM888 128h8v4h-8zM900 128h4v4h-4zM888 132h8v4h-8zM900 132h4v4h-4zM892 136h20v4h-20zM900 140h4v4h-4zM908 140h8v4h-8zM900 144h4v4h-4zM908 144h8v4h-8zM900 148h4v4h-4zM908 148h8v4h-8zM900 152h4v4h-4zM908 152h8v4h-8zM888 156h24v4h-24zM900 160h4v4h-4zM920 120h8v4h-8zM920 124h8v4h-8zM920 128h8v4h-8zM936 128h8v4h-8zM920 132h8v4h-8zM936 132h8v4h-8zM920 136h8v4h-8zM936 136h8v4h-8zM920 140h8v4h-8zM936 140h8v4h-8zM920 144h28v4h-28zM936 148h8v4h-8zM936 152h8v4h-8zM936 156h8v4h-8z"/>
<path fill="#8b949e" d="M888 190h12v2h-12zM888 192h4v2h-4zM898 192h4v2h-4zM888 194h4v2h-4zM898 194h4v2h-4zM888 196h4v2h-4zM898 196h4v2h-4zM888 198h4v2h-4zM898 198h4v2h-4zM888 200h4v2h-4zM898 200h4v2h-4zM888 202h12v2h-12zM888 204h4v2h-4zM888 206h4v2h-4zM888 208h4v2h-4zM906 190h12v2h-12zM904 192h4v2h-4zM914 192h4v2h-4zM904 194h4v2h-4zM914 194h4v2h-4zM904 196h14v2h-14zM904 198h4v2h-4zM904 200h4v2h-4zM906 202h12v2h-12zM922 190h12v2h-12zM920 192h4v2h-4zM930 192h4v2h-4zM920 194h4v2h-4zM920 196h4v2h-4zM920 198h4v2h-4zM920 200h4v2h-4zM920 202h4v2h-4zM954 190h10v2h-10zM962 192h4v2h-4zM954 194h12v2h-12zM952 196h4v2h-4zM962 196h4v2h-4zM952 198h4v2h-4zM962 198h4v2h-4zM952 200h4v2h-4zM962 200h4v2h-4zM954 202h12v2h-12zM970 190h12v2h-12zM968 192h4v2h-4zM968 194h4v2h-4zM968 196h4v2h-4zM968 198h4v2h-4zM968 200h4v2h-4zM970 202h12v2h-12zM988 184h4v2h-4zM988 186h4v2h-4zM988 188h4v2h-4zM986 190h10v2h-10zM988 192h4v2h-4zM988 194h4v2h-4zM988 196h4v2h-4zM988 198h4v2h-4zM988 200h4v2h-4zM990 202h8v2h-8zM1006 184h4v2h-4zM1006 186h4v2h-4zM1004 190h6v2h-6zM1006 192h4v2h-4zM1006 194h4v2h-4zM1006 196h4v2h-4zM1006 198h4v2h-4zM1006 200h4v2h-4zM1006 202h6v2h-6zM1016 190h4v2h-4zM1026 190h4v2h-4zM1016 192h4v2h-4zM1026 192h4v2h-4zM1016 194h4v2h-4zM1026 194h4v2h-4zM1016 196h4v2h-4zM1026 196h4v2h-4zM1018 198h4v2h-4zM1024 198h4v2h-4zM1020 200h6v2h-6zM1022 202h2v2h-2zM1034 190h12v2h-12zM1032 192h4v2h-4zM1042 192h4v2h-4zM1032 194h4v2h-4zM1042 194h4v2h-4zM1032 196h14v2h-14zM1032 198h4v2h-4zM1032 200h4v2h-4zM1034 202h12v2h-12zM1074 184h4v2h-4zM1074 186h4v2h-4zM1074 188h4v2h-4zM1066 190h12v2h-12zM1064 192h4v2h-4zM1074 192h4v2h-4zM1064 194h4v2h-4zM1074 194h4v2h-4zM1064 196h4v2h-4zM1074 196h4v2h-4zM1064 198h4v2h-4zM1074 198h4v2h-4zM1064 200h4v2h-4zM1074 200h4v2h-4zM1066 202h12v2h-12zM1082 190h10v2h-10zM1090 192h4v2h-4zM1082 194h12v2h-12zM1080 196h4v2h-4zM1090 196h4v2h-4zM1080 198h4v2h-4zM1090 198h4v2h-4zM1080 200h4v2h-4zM1090 200h4v2h-4zM1082 202h12v2h-12zM1096 190h4v2h-4zM1106 190h4v2h-4zM1096 192h4v2h-4zM1106 192h4v2h-4zM1096 194h4v2h-4zM1106 194h4v2h-4zM1096 196h4v2h-4zM1106 196h4v2h-4zM1096 198h4v2h-4zM1106 198h4v2h-4zM1096 200h4v2h-4zM1106 200h4v2h-4zM1098 202h12v2h-12zM1106 204h4v2h-4zM1106 206h4v2h-4zM1096 208h12v2h-12z"/>
<path fill="#e6edf3" d="M900 220h4v4h-4zM892 224h24v4h-24zM888 228h8v4h-8zM900 228h4v4h-4zM888 232h8v4h-8zM900 232h4v4h-4zM888 236h8v4h-8zM900 236h4v4h-4zM892 240h20v4h-20zM900 244h4v4h-4zM908 244h8v4h-8zM900 248h4v4h-4zM908 248h8v4h-8zM900 252h4v4h-4zM908 252h8v4h-8zM900 256h4v4h-4zM908 256h8v4h-8zM888 260h24v4h-24zM900 264h4v4h-4zM920 224h28v4h-28zM920 228h8v4h-8zM940 228h8v4h-8zM920 232h8v4h-8zM920 236h8v4h-8zM920 240h24v4h-24zM940 244h8v4h-8zM940 248h8v4h-8zM940 252h8v4h-8zM920 256h8v4h-8zM940 256h8v4h-8zM924 260h20v4h-20zM956 224h20v4h-20zM952 228h8v4h-8zM972 228h8v4h-8zM952 232h8v4h-8zM972 232h8v4h-8zM952 236h8v4h-8zM972 236h8v4h-8zM956 240h20v4h-20zM952 244h8v4h-8zM972 244h8v4h-8zM952 248h8v4h-8zM972 248h8v4h-8zM952 252h8v4h-8zM972 252h8v4h-8zM952 256h8v4h-8zM972 256h8v4h-8zM956 260h20v4h-20zM996 224h8v4h-8zM992 228h12v4h-12zM988 232h16v4h-16zM988 236h4v4h-4zM996 236h8v4h-8zM996 240h8v4h-8zM996 244h8v4h-8zM996 248h8v4h-8zM996 252h8v4h-8zM996 256h8v4h-8zM988 260h24v4h-24z"/>
<path fill="#8b949e" d="M890 294h12v2h-12zM888 296h4v2h-4zM888 298h4v2h-4zM888 300h4v2h-4zM888 302h4v2h-4zM888 304h4v2h-4zM890 306h12v2h-12zM906 294h10v2h-10zM914 296h4v2h-4zM906 298h12v2h-12zM904 300h4v2h-4zM914 300h4v2h-4zM904 302h4v2h-4zM914 302h4v2h-4zM904 304h4v2h-4zM914 304h4v2h-4zM906 306h12v2h-12zM922 294h12v2h-12zM920 296h4v2h-4zM920 298h4v2h-4zM920 300h4v2h-4zM920 302h4v2h-4zM920 304h4v2h-4zM922 306h12v2h-12zM936 288h4v2h-4zM936 290h4v2h-4zM936 292h4v2h-4zM936 294h12v2h-12zM936 296h4v2h-4zM946 296h4v2h-4zM936 298h4v2h-4zM946 298h4v2h-4zM936 300h4v2h-4zM946 300h4v2h-4zM936 302h4v2h-4zM946 302h4v2h-4zM936 304h4v2h-4zM946 304h4v2h-4zM936 306h4v2h-4zM946 306h4v2h-4zM954 294h12v2h-12zM952 296h4v2h-4zM962 296h4v2h-4zM952 298h4v2h-4zM962 298h4v2h-4zM952 300h14v2h-14zM952 302h4v2h-4zM952 304h4v2h-4zM954 306h12v2h-12zM986 294h12v2h-12zM984 296h4v2h-4zM984 298h4v2h-4zM986 300h10v2h-10zM994 302h4v2h-4zM994 304h4v2h-4zM984 306h12v2h-12zM1002 294h10v2h-10zM1010 296h4v2h-4zM1002 298h12v2h-12zM1000 300h4v2h-4zM1010 300h4v2h-4zM1000 302h4v2h-4zM1010 302h4v2h-4zM1000 304h4v2h-4zM1010 304h4v2h-4zM1002 306h12v2h-12zM1016 294h4v2h-4zM1026 294h4v2h-4zM1016 296h4v2h-4zM1026 296h4v2h-4zM1016 298h4v2h-4zM1026 298h4v2h-4zM1016 300h4v2h-4zM1026 300h4v2h-4zM1018 302h4v2h-4zM1024 302h4v2h-4zM1020 304h6v2h-6zM1022 306h2v2h-2zM1034 294h12v2h-12zM1032 296h4v2h-4zM1042 296h4v2h-4zM1032 298h4v2h-4zM1042 298h4v2h-4zM1032 300h14v2h-14zM1032 302h4v2h-4zM1032 304h4v2h-4zM1034 306h12v2h-12zM1058 288h4v2h-4zM1058 290h4v2h-4zM1058 292h4v2h-4zM1050 294h12v2h-12zM1048 296h4v2h-4zM1058 296h4v2h-4zM1048 298h4v2h-4zM1058 298h4v2h-4zM1048 300h4v2h-4zM1058 300h4v2h-4zM1048 302h4v2h-4zM1058 302h4v2h-4zM1048 304h4v2h-4zM1058 304h4v2h-4zM1050 306h12v2h-12z"/>
<path fill="#e6edf3" d="M892 328h20v4h-20zM888 332h8v4h-8zM908 332h8v4h-8zM908 336h8v4h-8zM908 340h8v4h-8zM904 344h8v4h-8zM900 348h8v4h-8zM896 352h8v4h-8zM892 356h8v4h-8zM888 360h8v4h-8zM908 360h8v4h-8zM888 364h28v4h-28z"/>
<path fill="#8b949e" d="M890 398h10v2h-10zM898 400h4v2h-4zM890 402h12v2h-12zM888 404h4v2h-4zM898 404h4v2h-4zM888 406h4v2h-4zM898 406h4v2h-4zM888 408h4v2h-4zM898 408h4v2h-4zM890 410h12v2h-12zM906 398h12v2h-12zM904 400h4v2h-4zM914 400h4v2h-4zM904 402h4v2h-4zM914 402h4v2h-4zM904 404h4v2h-4zM914 404h4v2h-4zM904 406h4v2h-4zM914 406h4v2h-4zM904 408h4v2h-4zM914 408h4v2h-4zM906 410h10v2h-10zM914 412h4v2h-4zM914 414h4v2h-4zM904 416h12v2h-12zM922 398h12v2h-12zM920 400h4v2h-4zM930 400h4v2h-4zM920 402h4v2h-4zM930 402h4v2h-4zM920 404h14v2h-14zM920 406h4v2h-4zM920 408h4v2h-4zM922 410h12v2h-12zM936 398h12v2h-12zM936 400h4v2h-4zM946 400h4v2h-4zM936 402h4v2h-4zM946 402h4v2h-4zM936 404h4v2h-4zM946 404h4v2h-4zM936 406h4v2h-4zM946 406h4v2h-4zM936 408h4v2h-4zM946 408h4v2h-4zM936 410h4v2h-4zM946 410h4v2h-4zM956 392h4v2h-4zM956 394h4v2h-4zM956 396h4v2h-4zM954 398h10v2h-10zM956 400h4v2h-4zM956 402h4v2h-4zM956 404h4v2h-4zM956 406h4v2h-4zM956 408h4v2h-4zM958 410h8v2h-8zM970 398h12v2h-12zM968 400h4v2h-4zM968 402h4v2h-4zM970 404h10v2h-10zM978 406h4v2h-4zM978 408h4v2h-4zM968 410h12v2h-12z"/>
<path fill="#e6edf3" d="M892 432h20v4h-20zM888 436h8v4h-8zM908 436h8v4h-8zM908 440h8v4h-8zM908 444h8v4h-8zM896 448h16v4h-16zM908 452h8v4h-8zM908 456h8v4h-8zM908 460h8v4h-8zM888 464h8v4h-8zM908 464h8v4h-8zM892 468h20v4h-20zM932 464h8v4h-8zM932 468h8v4h-8zM956 432h20v4h-20zM952 436h8v4h-8zM972 436h8v4h-8zM972 440h8v4h-8zM972 444h8v4h-8zM960 448h16v4h-16zM972 452h8v4h-8zM972 456h8v4h-8zM972 460h8v4h-8zM952 464h8v4h-8zM972 464h8v4h-8zM956 468h20v4h-20z"/>
<path fill="#8b949e" d="M888 502h12v2h-12zM888 504h4v2h-4zM898 504h4v2h-4zM888 506h4v2h-4zM898 506h4v2h-4zM888 508h4v2h-4zM898 508h4v2h-4zM888 510h4v2h-4zM898 510h4v2h-4zM888 512h4v2h-4zM898 512h4v2h-4zM888 514h12v2h-12zM888 516h4v2h-4zM888 518h4v2h-4zM888 520h4v2h-4zM906 502h12v2h-12zM904 504h4v2h-4zM914 504h4v2h-4zM904 506h4v2h-4zM904 508h4v2h-4zM904 510h4v2h-4zM904 512h4v2h-4zM904 514h4v2h-4zM922 502h12v2h-12zM920 504h4v2h-4zM930 504h4v2h-4zM920 506h4v2h-4zM930 506h4v2h-4zM920 508h14v2h-14zM920 510h4v2h-4zM920 512h4v2h-4zM922 514h12v2h-12zM936 502h6v2h-6zM944 502h4v2h-4zM936 504h4v2h-4zM942 504h2v2h-2zM946 504h4v2h-4zM936 506h4v2h-4zM942 506h2v2h-2zM946 506h4v2h-4zM936 508h4v2h-4zM942 508h2v2h-2zM946 508h4v2h-4zM936 510h4v2h-4zM942 510h2v2h-2zM946 510h4v2h-4zM936 512h4v2h-4zM946 512h4v2h-4zM936 514h4v2h-4zM946 514h4v2h-4zM958 496h4v2h-4zM958 498h4v2h-4zM956 502h6v2h-6zM958 504h4v2h-4zM958 506h4v2h-4zM958 508h4v2h-4zM958 510h4v2h-4zM958 512h4v2h-4zM958 514h6v2h-6zM968 502h4v2h-4zM978 502h4v2h-4zM968 504h4v2h-4zM978 504h4v2h-4zM968 506h4v2h-4zM978 506h4v2h-4zM968 508h4v2h-4zM978 508h4v2h-4zM968 510h4v2h-4zM978 510h4v2h-4zM968 512h4v2h-4zM978 512h4v2h-4zM970 514h12v2h-12zM984 502h6v2h-6zM992 502h4v2h-4zM984 504h4v2h-4zM990 504h2v2h-2zM994 504h4v2h-4zM984 506h4v2h-4zM990 506h2v2h-2zM994 506h4v2h-4zM984 508h4v2h-4zM990 508h2v2h-2zM994 508h4v2h-4zM984 510h4v2h-4zM990 510h2v2h-2zM994 510h4v2h-4zM984 512h4v2h-4zM994 512h4v2h-4zM984 514h4v2h-4zM994 514h4v2h-4zM1018 502h12v2h-12zM1016 504h4v2h-4zM1026 504h4v2h-4zM1016 506h4v2h-4zM1016 508h4v2h-4zM1016 510h4v2h-4zM1016 512h4v2h-4zM1016 514h4v2h-4zM1034 502h12v2h-12zM1032 504h4v2h-4zM1042 504h4v2h-4zM1032 506h4v2h-4zM1042 506h4v2h-4zM1032 508h14v2h-14zM1032 510h4v2h-4zM1032 512h4v2h-4zM1034 514h12v2h-12zM1050 502h12v2h-12zM1048 504h4v2h-4zM1058 504h4v2h-4zM1048 506h4v2h-4zM1058 506h4v2h-4zM1048 508h4v2h-4zM1058 508h4v2h-4zM1048 510h4v2h-4zM1058 510h4v2h-4zM1048 512h4v2h-4zM1058 512h4v2h-4zM1050 514h12v2h-12zM1058 516h4v2h-4zM1058 518h4v2h-4zM1058 520h4v2h-4zM1064 502h4v2h-4zM1074 502h4v2h-4zM1064 504h4v2h-4zM1074 504h4v2h-4zM1064 506h4v2h-4zM1074 506h4v2h-4zM1064 508h4v2h-4zM1074 508h4v2h-4zM1064 510h4v2h-4zM1074 510h4v2h-4zM1064 512h4v2h-4zM1074 512h4v2h-4zM1066 514h12v2h-12zM1082 502h12v2h-12zM1080 504h4v2h-4zM1090 504h4v2h-4zM1080 506h4v2h-4zM1090 506h4v2h-4zM1080 508h14v2h-14zM1080 510h4v2h-4zM1080 512h4v2h-4zM1082 514h12v2h-12zM1098 502h12v2h-12zM1096 504h4v2h-4zM1096 506h4v2h-4zM1098 508h10v2h-10zM1106 510h4v2h-4zM1106 512h4v2h-4zM1096 514h12v2h-12zM1116 496h4v2h-4zM1116 498h4v2h-4zM1116 500h4v2h-4zM1114 502h10v2h-10zM1116 504h4v2h-4zM1116 506h4v2h-4zM1116 508h4v2h-4zM1116 510h4v2h-4zM1116 512h4v2h-4zM1118 514h8v2h-8zM1130 502h12v2h-12zM1128 504h4v2h-4zM1128 506h4v2h-4zM1130 508h10v2h-10zM1138 510h4v2h-4zM1138 512h4v2h-4zM1128 514h12v2h-12z"/>
<path fill="#f0883e" d="M318 414h4v1h-4zM317 415h5v1h-5zM317 416h6v1h-6zM215 417h4v1h-4zM316 417h7v1h-7zM214 418h5v1h-5zM315 418h9v1h-9zM214 419h6v1h-6zM314 419h10v1h-10zM213 420h7v1h-7zM314 420h11v1h-11zM213 421h7v1h-7zM313 421h6v1h-6zM320 421h5v1h-5zM212 422h9v1h-9zM312 422h6v1h-6zM320 422h6v1h-6zM212 423h9v1h-9zM312 423h6v1h-6zM321 423h5v1h-5zM211 424h10v1h-10zM311 424h6v1h-6zM321 424h5v1h-5zM211 425h5v1h-5zM217 425h5v1h-5zM310 425h6v1h-6zM322 425h5v1h-5zM210 426h6v1h-6zM217 426h5v1h-5zM310 426h6v1h-6zM322 426h5v1h-5zM210 427h5v1h-5zM217 427h6v1h-6zM309 427h6v1h-6zM322 427h6v1h-6zM209 428h6v1h-6zM218 428h5v1h-5zM308 428h6v1h-6zM323 428h5v1h-5zM209 429h5v1h-5zM218 429h5v1h-5zM307 429h7v1h-7zM323 429h6v1h-6zM208 430h6v1h-6zM219 430h5v1h-5zM307 430h6v1h-6zM324 430h5v1h-5zM208 431h5v1h-5zM219 431h5v1h-5zM306 431h6v1h-6zM324 431h6v1h-6zM574 431h4v1h-4zM207 432h6v1h-6zM219 432h5v1h-5zM305 432h6v1h-6zM325 432h5v1h-5zM572 432h7v1h-7zM207 433h5v1h-5zM220 433h5v1h-5zM305 433h6v1h-6zM325 433h5v1h-5zM570 433h9v1h-9zM206 434h6v1h-6zM220 434h5v1h-5zM304 434h6v1h-6zM326 434h5v1h-5zM568 434h12v1h-12zM206 435h5v1h-5zM220 435h5v1h-5zM303 435h6v1h-6zM326 435h5v1h-5zM567 435h13v1h-13zM205 436h6v1h-6zM221 436h5v1h-5zM303 436h6v1h-6zM326 436h6v1h-6zM565 436h16v1h-16zM205 437h5v1h-5zM221 437h5v1h-5zM302 437h6v1h-6zM327 437h5v1h-5zM563 437h10v1h-10zM576 437h6v1h-6zM204 438h6v1h-6zM221 438h5v1h-5zM301 438h6v1h-6zM327 438h6v1h-6zM561 438h10v1h-10zM576 438h6v1h-6zM204 439h5v1h-5zM222 439h5v1h-5zM266 439h5v1h-5zM300 439h7v1h-7zM328 439h5v1h-5zM560 439h10v1h-10zM577 439h6v1h-6zM203 440h6v1h-6zM222 440h5v1h-5zM266 440h7v1h-7zM300 440h6v1h-6zM328 440h6v1h-6zM558 440h10v1h-10zM578 440h5v1h-5zM203 441h5v1h-5zM222 441h6v1h-6zM265 441h10v1h-10zM299 441h6v1h-6zM329 441h5v1h-5zM556 441h10v1h-10zM578 441h6v1h-6zM202 442h6v1h-6zM223 442h5v1h-5zM265 442h12v1h-12zM298 442h6v1h-6zM329 442h6v1h-6zM555 442h9v1h-9zM579 442h6v1h-6zM202 443h5v1h-5zM223 443h5v1h-5zM264 443h15v1h-15zM298 443h6v1h-6zM330 443h5v1h-5zM553 443h10v1h-10zM579 443h6v1h-6zM201 444h6v1h-6zM224 444h5v1h-5zM264 444h5v1h-5zM270 444h11v1h-11zM297 444h6v1h-6zM330 444h5v1h-5zM551 444h10v1h-10zM580 444h6v1h-6zM201 445h5v1h-5zM224 445h5v1h-5zM263 445h6v1h-6zM272 445h12v1h-12zM296 445h6v1h-6zM331 445h5v1h-5zM549 445h10v1h-10zM581 445h6v1h-6zM200 446h6v1h-6zM224 446h5v1h-5zM263 446h5v1h-5zM274 446h12v1h-12zM296 446h6v1h-6zM331 446h5v1h-5zM548 446h10v1h-10zM581 446h6v1h-6zM200 447h5v1h-5zM225 447h5v1h-5zM262 447h6v1h-6zM276 447h12v1h-12zM295 447h6v1h-6zM331 447h6v1h-6zM547 447h9v1h-9zM582 447h6v1h-6zM199 448h6v1h-6zM225 448h5v1h-5zM262 448h5v1h-5zM278 448h12v1h-12zM294 448h6v1h-6zM332 448h5v1h-5zM369 448h4v1h-4zM547 448h7v1h-7zM583 448h5v1h-5zM199 449h5v1h-5zM225 449h5v1h-5zM261 449h6v1h-6zM281 449h11v1h-11zM293 449h7v1h-7zM332 449h6v1h-6zM368 449h6v1h-6zM546 449h6v1h-6zM583 449h6v1h-6zM198 450h6v1h-6zM226 450h5v1h-5zM261 450h5v1h-5zM283 450h16v1h-16zM333 450h5v1h-5zM367 450h8v1h-8zM546 450h5v1h-5zM584 450h6v1h-6zM198 451h5v1h-5zM226 451h5v1h-5zM260 451h6v1h-6zM285 451h13v1h-13zM333 451h6v1h-6zM365 451h11v1h-11zM545 451h6v1h-6zM584 451h6v1h-6zM197 452h6v1h-6zM226 452h5v1h-5zM260 452h5v1h-5zM287 452h10v1h-10zM334 452h5v1h-5zM364 452h12v1h-12zM545 452h5v1h-5zM585 452h6v1h-6zM197 453h5v1h-5zM227 453h5v1h-5zM259 453h6v1h-6zM289 453h8v1h-8zM334 453h5v1h-5zM363 453h14v1h-14zM544 453h6v1h-6zM586 453h5v1h-5zM196 454h6v1h-6zM227 454h5v1h-5zM259 454h5v1h-5zM291 454h5v1h-5zM335 454h5v1h-5zM362 454h8v1h-8zM372 454h6v1h-6zM544 454h5v1h-5zM586 454h6v1h-6zM113 455h6v1h-6zM196 455h5v1h-5zM227 455h6v1h-6zM258 455h6v1h-6zM335 455h5v1h-5zM361 455h7v1h-7zM372 455h7v1h-7zM543 455h6v1h-6zM587 455h6v1h-6zM112 456h12v1h-12zM161 456h8v1h-8zM195 456h6v1h-6zM228 456h5v1h-5zM258 456h5v1h-5zM335 456h6v1h-6zM359 456h8v1h-8zM373 456h7v1h-7zM440 456h10v1h-10zM543 456h5v1h-5zM587 456h6v1h-6zM111 457h18v1h-18zM155 457h16v1h-16zM195 457h5v1h-5zM228 457h5v1h-5zM257 457h6v1h-6zM336 457h5v1h-5zM358 457h8v1h-8zM374 457h7v1h-7zM427 457h24v1h-24zM542 457h6v1h-6zM588 457h6v1h-6zM110 458h24v1h-24zM148 458h26v1h-26zM194 458h6v1h-6zM229 458h5v1h-5zM257 458h5v1h-5zM336 458h6v1h-6zM357 458h8v1h-8zM375 458h6v1h-6zM420 458h32v1h-32zM542 458h5v1h-5zM589 458h5v1h-5zM109 459h30v1h-30zM142 459h35v1h-35zM194 459h5v1h-5zM229 459h5v1h-5zM256 459h6v1h-6zM337 459h5v1h-5zM356 459h8v1h-8zM376 459h6v1h-6zM419 459h34v1h-34zM541 459h6v1h-6zM589 459h6v1h-6zM778 459h4v1h-4zM108 460h7v1h-7zM121 460h43v1h-43zM166 460h13v1h-13zM193 460h6v1h-6zM229 460h5v1h-5zM256 460h5v1h-5zM337 460h6v1h-6zM355 460h7v1h-7zM377 460h6v1h-6zM417 460h26v1h-26zM447 460h7v1h-7zM541 460h5v1h-5zM590 460h6v1h-6zM777 460h6v1h-6zM106 461h8v1h-8zM126 461h32v1h-32zM168 461h14v1h-14zM193 461h5v1h-5zM230 461h5v1h-5zM255 461h6v1h-6zM338 461h5v1h-5zM354 461h7v1h-7zM377 461h7v1h-7zM416 461h14v1h-14zM448 461h7v1h-7zM540 461h6v1h-6zM590 461h6v1h-6zM775 461h9v1h-9zM105 462h8v1h-8zM131 462h20v1h-20zM171 462h13v1h-13zM192 462h6v1h-6zM230 462h5v1h-5zM255 462h5v1h-5zM338 462h5v1h-5zM352 462h8v1h-8zM378 462h7v1h-7zM415 462h8v1h-8zM449 462h7v1h-7zM540 462h5v1h-5zM591 462h6v1h-6zM774 462h11v1h-11zM104 463h8v1h-8zM136 463h9v1h-9zM174 463h13v1h-13zM192 463h5v1h-5zM230 463h5v1h-5zM254 463h6v1h-6zM339 463h5v1h-5zM351 463h8v1h-8zM379 463h7v1h-7zM413 463h9v1h-9zM450 463h7v1h-7zM539 463h6v1h-6zM592 463h6v1h-6zM773 463h13v1h-13zM62 464h4v1h-4zM103 464h8v1h-8zM176 464h14v1h-14zM191 464h6v1h-6zM231 464h5v1h-5zM254 464h5v1h-5zM339 464h5v1h-5zM350 464h8v1h-8zM380 464h6v1h-6zM412 464h8v1h-8zM451 464h7v1h-7zM497 464h4v1h-4zM539 464h5v1h-5zM592 464h6v1h-6zM771 464h15v1h-15zM62 465h6v1h-6zM102 465h7v1h-7zM179 465h17v1h-17zM231 465h5v1h-5zM253 465h6v1h-6zM339 465h6v1h-6zM349 465h8v1h-8zM381 465h6v1h-6zM411 465h8v1h-8zM452 465h7v1h-7zM495 465h7v1h-7zM538 465h6v1h-6zM593 465h6v1h-6zM770 465h8v1h-8zM781 465h6v1h-6zM62 466h8v1h-8zM101 466h7v1h-7zM181 466h15v1h-15zM231 466h5v1h-5zM253 466h5v1h-5zM340 466h5v1h-5zM348 466h7v1h-7zM382 466h6v1h-6zM409 466h9v1h-9zM453 466h7v1h-7zM494 466h9v1h-9zM538 466h5v1h-5zM594 466h5v1h-5zM769 466h8v1h-8zM782 466h6v1h-6zM62 467h9v1h-9zM100 467h7v1h-7zM184 467h11v1h-11zM232 467h5v1h-5zM252 467h6v1h-6zM340 467h14v1h-14zM382 467h7v1h-7zM408 467h8v1h-8zM454 467h7v1h-7zM492 467h11v1h-11zM537 467h6v1h-6zM594 467h6v1h-6zM727 467h5v1h-5zM767 467h9v1h-9zM782 467h7v1h-7zM63 468h10v1h-10zM99 468h7v1h-7zM187 468h8v1h-8zM232 468h5v1h-5zM252 468h5v1h-5zM341 468h12v1h-12zM383 468h7v1h-7zM407 468h8v1h-8zM455 468h7v1h-7zM491 468h13v1h-13zM537 468h5v1h-5zM595 468h6v1h-6zM726 468h8v1h-8zM766 468h8v1h-8zM783 468h7v1h-7zM65 469h10v1h-10zM98 469h7v1h-7zM189 469h5v1h-5zM232 469h6v1h-6zM251 469h6v1h-6zM341 469h11v1h-11zM384 469h7v1h-7zM406 469h8v1h-8zM456 469h7v1h-7zM489 469h9v1h-9zM499 469h6v1h-6zM536 469h6v1h-6zM595 469h6v1h-6zM725 469h11v1h-11zM765 469h8v1h-8zM784 469h7v1h-7zM67 470h9v1h-9zM97 470h7v1h-7zM233 470h5v1h-5zM251 470h5v1h-5zM342 470h9v1h-9zM385 470h6v1h-6zM404 470h8v1h-8zM457 470h7v1h-7zM488 470h9v1h-9zM499 470h7v1h-7zM536 470h5v1h-5zM596 470h6v1h-6zM724 470h15v1h-15zM763 470h9v1h-9zM785 470h7v1h-7zM68 471h10v1h-10zM96 471h7v1h-7zM233 471h5v1h-5zM250 471h6v1h-6zM342 471h7v1h-7zM386 471h6v1h-6zM403 471h8v1h-8zM458 471h7v1h-7zM486 471h9v1h-9zM500 471h6v1h-6zM535 471h6v1h-6zM597 471h5v1h-5zM724 471h17v1h-17zM762 471h8v1h-8zM786 471h7v1h-7zM70 472h10v1h-10zM95 472h7v1h-7zM234 472h5v1h-5zM250 472h5v1h-5zM343 472h5v1h-5zM387 472h6v1h-6zM402 472h8v1h-8zM459 472h7v1h-7zM484 472h10v1h-10zM501 472h6v1h-6zM535 472h5v1h-5zM597 472h6v1h-6zM723 472h6v1h-6zM731 472h12v1h-12zM761 472h8v1h-8zM787 472h7v1h-7zM830 472h4v1h-4zM72 473h9v1h-9zM93 473h8v1h-8zM234 473h5v1h-5zM249 473h6v1h-6zM343 473h4v1h-4zM387 473h7v1h-7zM400 473h9v1h-9zM460 473h7v1h-7zM483 473h9v1h-9zM502 473h6v1h-6zM534 473h6v1h-6zM598 473h7v1h-7zM722 473h6v1h-6zM733 473h13v1h-13zM759 473h9v1h-9zM788 473h7v1h-7zM828 473h6v1h-6zM73 474h10v1h-10zM92 474h8v1h-8zM234 474h5v1h-5zM249 474h5v1h-5zM388 474h7v1h-7zM399 474h8v1h-8zM461 474h7v1h-7zM481 474h10v1h-10zM502 474h7v1h-7zM534 474h5v1h-5zM598 474h9v1h-9zM721 474h7v1h-7zM736 474h12v1h-12zM758 474h8v1h-8zM789 474h6v1h-6zM826 474h8v1h-8zM75 475h10v1h-10zM91 475h8v1h-8zM235 475h5v1h-5zM248 475h6v1h-6zM389 475h7v1h-7zM398 475h8v1h-8zM462 475h7v1h-7zM480 475h9v1h-9zM503 475h6v1h-6zM533 475h6v1h-6zM599 475h9v1h-9zM720 475h7v1h-7zM738 475h13v1h-13zM757 475h8v1h-8zM790 475h6v1h-6zM825 475h9v1h-9zM77 476h9v1h-9zM90 476h8v1h-8zM235 476h5v1h-5zM248 476h5v1h-5zM390 476h15v1h-15zM463 476h7v1h-7zM478 476h9v1h-9zM504 476h6v1h-6zM533 476h5v1h-5zM600 476h10v1h-10zM719 476h7v1h-7zM740 476h13v1h-13zM755 476h9v1h-9zM791 476h6v1h-6zM823 476h10v1h-10zM78 477h10v1h-10zM89 477h7v1h-7zM235 477h5v1h-5zM247 477h6v1h-6zM391 477h12v1h-12zM464 477h7v1h-7zM477 477h9v1h-9zM505 477h6v1h-6zM532 477h6v1h-6zM602 477h9v1h-9zM718 477h7v1h-7zM743 477h19v1h-19zM791 477h7v1h-7zM822 477h9v1h-9zM80 478h15v1h-15zM236 478h5v1h-5zM247 478h5v1h-5zM392 478h10v1h-10zM465 478h7v1h-7zM475 478h9v1h-9zM505 478h7v1h-7zM532 478h5v1h-5zM604 478h9v1h-9zM673 478h7v1h-7zM718 478h6v1h-6zM745 478h16v1h-16zM792 478h7v1h-7zM820 478h9v1h-9zM82 479h12v1h-12zM236 479h5v1h-5zM246 479h6v1h-6zM392 479h9v1h-9zM466 479h7v1h-7zM474 479h9v1h-9zM506 479h6v1h-6zM531 479h6v1h-6zM605 479h10v1h-10zM667 479h15v1h-15zM717 479h6v1h-6zM748 479h12v1h-12zM793 479h7v1h-7zM818 479h10v1h-10zM83 480h10v1h-10zM236 480h5v1h-5zM246 480h5v1h-5zM393 480h6v1h-6zM467 480h14v1h-14zM507 480h6v1h-6zM531 480h5v1h-5zM607 480h9v1h-9zM660 480h23v1h-23zM716 480h6v1h-6zM750 480h8v1h-8zM794 480h7v1h-7zM817 480h9v1h-9zM85 481h7v1h-7zM237 481h5v1h-5zM245 481h6v1h-6zM394 481h4v1h-4zM468 481h12v1h-12zM508 481h6v1h-6zM530 481h6v1h-6zM608 481h10v1h-10zM654 481h31v1h-31zM715 481h7v1h-7zM752 481h5v1h-5zM795 481h7v1h-7zM815 481h10v1h-10zM87 482h4v1h-4zM237 482h5v1h-5zM245 482h5v1h-5zM469 482h9v1h-9zM508 482h7v1h-7zM530 482h5v1h-5zM610 482h10v1h-10zM648 482h28v1h-28zM677 482h9v1h-9zM714 482h7v1h-7zM796 482h7v1h-7zM813 482h10v1h-10zM237 483h6v1h-6zM244 483h6v1h-6zM470 483h7v1h-7zM509 483h6v1h-6zM529 483h6v1h-6zM612 483h9v1h-9zM644 483h26v1h-26zM679 483h8v1h-8zM713 483h7v1h-7zM797 483h7v1h-7zM812 483h9v1h-9zM238 484h5v1h-5zM244 484h5v1h-5zM471 484h4v1h-4zM510 484h6v1h-6zM529 484h5v1h-5zM613 484h10v1h-10zM640 484h23v1h-23zM680 484h9v1h-9zM712 484h7v1h-7zM798 484h6v1h-6zM810 484h10v1h-10zM238 485h11v1h-11zM511 485h6v1h-6zM528 485h6v1h-6zM615 485h9v1h-9zM636 485h21v1h-21zM682 485h8v1h-8zM711 485h7v1h-7zM799 485h6v1h-6zM809 485h9v1h-9zM239 486h9v1h-9zM511 486h7v1h-7zM528 486h5v1h-5zM617 486h9v1h-9zM632 486h19v1h-19zM683 486h9v1h-9zM711 486h6v1h-6zM800 486h6v1h-6zM807 486h9v1h-9zM239 487h9v1h-9zM512 487h6v1h-6zM527 487h6v1h-6zM618 487h29v1h-29zM684 487h9v1h-9zM710 487h6v1h-6zM800 487h15v1h-15zM239 488h8v1h-8zM513 488h6v1h-6zM527 488h5v1h-5zM620 488h23v1h-23zM686 488h9v1h-9zM709 488h6v1h-6zM801 488h12v1h-12zM240 489h7v1h-7zM514 489h6v1h-6zM526 489h6v1h-6zM621 489h18v1h-18zM687 489h9v1h-9zM708 489h7v1h-7zM802 489h10v1h-10zM240 490h6v1h-6zM514 490h7v1h-7zM526 490h5v1h-5zM623 490h12v1h-12zM689 490h9v1h-9zM707 490h7v1h-7zM803 490h7v1h-7zM240 491h6v1h-6zM515 491h6v1h-6zM525 491h6v1h-6zM625 491h6v1h-6zM690 491h9v1h-9zM706 491h7v1h-7zM804 491h4v1h-4zM241 492h4v1h-4zM516 492h6v1h-6zM525 492h5v1h-5zM692 492h8v1h-8zM705 492h7v1h-7zM241 493h4v1h-4zM517 493h6v1h-6zM524 493h6v1h-6zM693 493h9v1h-9zM705 493h6v1h-6zM517 494h12v1h-12zM695 494h8v1h-8zM704 494h6v1h-6zM518 495h11v1h-11zM696 495h13v1h-13zM519 496h9v1h-9zM697 496h12v1h-12zM520 497h8v1h-8zM699 497h9v1h-9zM520 498h7v1h-7zM700 498h7v1h-7zM521 499h6v1h-6zM702 499h4v1h-4zM522 500h4v1h-4z"/>
<path fill="#8b949e" d="M64 584h4v2h-4zM74 584h4v2h-4zM64 586h4v2h-4zM74 586h4v2h-4zM64 588h4v2h-4zM74 588h4v2h-4zM64 590h4v2h-4zM74 590h4v2h-4zM64 592h4v2h-4zM74 592h4v2h-4zM64 594h4v2h-4zM74 594h4v2h-4zM66 596h12v2h-12zM80 584h4v2h-4zM90 584h4v2h-4zM80 586h4v2h-4zM90 586h4v2h-4zM80 588h4v2h-4zM90 588h4v2h-4zM80 590h4v2h-4zM90 590h4v2h-4zM82 592h4v2h-4zM88 592h4v2h-4zM84 594h6v2h-6zM86 596h2v2h-2zM116 578h4v2h-4zM116 580h4v2h-4zM116 582h4v2h-4zM114 584h10v2h-10zM116 586h4v2h-4zM116 588h4v2h-4zM116 590h4v2h-4zM116 592h4v2h-4zM116 594h4v2h-4zM118 596h8v2h-8zM130 584h10v2h-10zM128 586h4v2h-4zM138 586h4v2h-4zM128 588h4v2h-4zM138 588h4v2h-4zM128 590h4v2h-4zM138 590h4v2h-4zM128 592h4v2h-4zM138 592h4v2h-4zM128 594h4v2h-4zM138 594h4v2h-4zM130 596h10v2h-10zM146 584h10v2h-10zM144 586h4v2h-4zM154 586h4v2h-4zM144 588h4v2h-4zM154 588h4v2h-4zM144 590h4v2h-4zM154 590h4v2h-4zM144 592h4v2h-4zM154 592h4v2h-4zM144 594h4v2h-4zM154 594h4v2h-4zM146 596h10v2h-10zM164 578h4v2h-4zM164 580h4v2h-4zM164 582h4v2h-4zM164 584h4v2h-4zM164 586h4v2h-4zM164 588h4v2h-4zM164 590h4v2h-4zM164 592h4v2h-4zM164 594h4v2h-4zM166 596h6v2h-6zM198 578h4v2h-4zM198 580h4v2h-4zM196 584h6v2h-6zM198 586h4v2h-4zM198 588h4v2h-4zM198 590h4v2h-4zM198 592h4v2h-4zM198 594h4v2h-4zM198 596h6v2h-6zM208 584h12v2h-12zM208 586h4v2h-4zM218 586h4v2h-4zM208 588h4v2h-4zM218 588h4v2h-4zM208 590h4v2h-4zM218 590h4v2h-4zM208 592h4v2h-4zM218 592h4v2h-4zM208 594h4v2h-4zM218 594h4v2h-4zM208 596h4v2h-4zM218 596h4v2h-4zM226 584h12v2h-12zM224 586h4v2h-4zM224 588h4v2h-4zM226 590h10v2h-10zM234 592h4v2h-4zM234 594h4v2h-4zM224 596h12v2h-12zM244 578h4v2h-4zM244 580h4v2h-4zM244 582h4v2h-4zM242 584h10v2h-10zM244 586h4v2h-4zM244 588h4v2h-4zM244 590h4v2h-4zM244 592h4v2h-4zM244 594h4v2h-4zM246 596h8v2h-8zM258 584h10v2h-10zM266 586h4v2h-4zM258 588h12v2h-12zM256 590h4v2h-4zM266 590h4v2h-4zM256 592h4v2h-4zM266 592h4v2h-4zM256 594h4v2h-4zM266 594h4v2h-4zM258 596h12v2h-12zM276 578h4v2h-4zM276 580h4v2h-4zM276 582h4v2h-4zM276 584h4v2h-4zM276 586h4v2h-4zM276 588h4v2h-4zM276 590h4v2h-4zM276 592h4v2h-4zM276 594h4v2h-4zM278 596h6v2h-6zM292 578h4v2h-4zM292 580h4v2h-4zM292 582h4v2h-4zM292 584h4v2h-4zM292 586h4v2h-4zM292 588h4v2h-4zM292 590h4v2h-4zM292 592h4v2h-4zM292 594h4v2h-4zM294 596h6v2h-6zM322 584h10v2h-10zM330 586h4v2h-4zM322 588h12v2h-12zM320 590h4v2h-4zM330 590h4v2h-4zM320 592h4v2h-4zM330 592h4v2h-4zM320 594h4v2h-4zM330 594h4v2h-4zM322 596h12v2h-12zM338 584h12v2h-12zM336 586h4v2h-4zM336 588h4v2h-4zM336 590h4v2h-4zM336 592h4v2h-4zM336 594h4v2h-4zM338 596h12v2h-12zM356 578h4v2h-4zM356 580h4v2h-4zM356 582h4v2h-4zM354 584h10v2h-10zM356 586h4v2h-4zM356 588h4v2h-4zM356 590h4v2h-4zM356 592h4v2h-4zM356 594h4v2h-4zM358 596h8v2h-8zM368 584h4v2h-4zM378 584h4v2h-4zM368 586h4v2h-4zM378 586h4v2h-4zM368 588h4v2h-4zM378 588h4v2h-4zM368 590h4v2h-4zM378 590h4v2h-4zM368 592h4v2h-4zM378 592h4v2h-4zM368 594h4v2h-4zM378 594h4v2h-4zM370 596h12v2h-12zM386 584h10v2h-10zM394 586h4v2h-4zM386 588h12v2h-12zM384 590h4v2h-4zM394 590h4v2h-4zM384 592h4v2h-4zM394 592h4v2h-4zM384 594h4v2h-4zM394 594h4v2h-4zM386 596h12v2h-12zM404 578h4v2h-4zM404 580h4v2h-4zM404 582h4v2h-4zM404 584h4v2h-4zM404 586h4v2h-4zM404 588h4v2h-4zM404 590h4v2h-4zM404 592h4v2h-4zM404 594h4v2h-4zM406 596h6v2h-6zM422 578h4v2h-4zM422 580h4v2h-4zM420 584h6v2h-6zM422 586h4v2h-4zM422 588h4v2h-4zM422 590h4v2h-4zM422 592h4v2h-4zM422 594h4v2h-4zM422 596h6v2h-6zM434 584h12v2h-12zM432 586h4v2h-4zM432 588h4v2h-4zM434 590h10v2h-10zM442 592h4v2h-4zM442 594h4v2h-4zM432 596h12v2h-12z"/>
</svg>
